<svg height="511pt" viewBox="-61 0 511 511.99955" width="511pt" xmlns="http://www.w3.org/2000/svg"><path d="m390.027344 194.761719c0 68.550781-35.421875 128.828125-88.953125 163.53125-8.066407 5.234375-14.800781 12.265625-19.539063 20.625l-69.945312 123.5625c-.15625.273437-.316406.535156-.496094.800781-7.472656 11.882812-25.128906 11.621094-32.160156-.800781l-69.945313-123.5625c-4.726562-8.351563-11.449219-15.378907-19.503906-20.59375-54.300781-35.1875-89.976563-96.679688-88.964844-166.433594 1.511719-104.859375 87.109375-190.414063 191.96875-191.8710938 6.277344-.0859374 12.496094.1249998 18.628907.6210938 100.152343 8.054687 178.910156 91.886719 178.910156 194.121094zm0 0" fill="#5ca33b"/><path d="m390.027344 194.761719c0 68.550781-35.421875 128.828125-88.953125 163.53125-8.066407 5.234375-14.800781 12.265625-19.539063 20.625l-69.945312 123.5625c-.15625.273437-.316406.535156-.496094.800781-.179688-.265625-.335938-.527344-.496094-.800781l-69.945312-123.5625c-4.726563-8.351563-11.449219-15.378907-19.503906-20.59375-54.300782-35.1875-89.976563-96.679688-88.964844-166.433594 1.445312-100.480469 80.097656-183.226563 178.933594-191.25 100.152343 8.054687 178.910156 91.886719 178.910156 194.121094zm0 0" fill="#6dc54a"/><path d="m339.070312 194.527344c0 79.441406-64.414062 143.808594-143.808593 143.808594-79.421875 0-143.804688-64.382813-143.804688-143.808594 0-85.367188 74.105469-152.316406 159.636719-142.929688 71.972656 7.886719 127.976562 68.871094 127.976562 142.929688zm0 0" fill="#c2eaf2"/><path d="m339.070312 194.527344c0 74.074218-56.003906 135.058594-127.976562 142.941406-71.96875-7.882812-127.972656-68.867188-127.972656-142.941406 0-74.058594 56.003906-135.042969 127.972656-142.929688 71.972656 7.886719 127.976562 68.871094 127.976562 142.929688zm0 0" fill="#def4f8"/><path d="m251.992188 81.371094h-113.460938c-4.371094 0-7.914062 3.546875-7.914062 7.917968 0 4.371094 3.542968 7.914063 7.914062 7.914063h10.820312v71.246094c0 4.371093 3.542969 7.914062 7.914063 7.914062 4.375 0 7.917969-3.542969 7.917969-7.914062v-71.246094h60.160156v71.246094c0 4.371093 3.542969 7.914062 7.914062 7.914062 4.375 0 7.917969-3.542969 7.917969-7.914062v-71.246094h10.816407c4.375 0 7.917968-3.542969 7.917968-7.914063 0-4.371093-3.542968-7.917968-7.917968-7.917968zm0 0" fill="#f29500"/><path d="m309.78125 169.503906v112.003906c-26.269531 34.535157-67.804688 56.828126-114.519531 56.828126-46.734375 0-88.257813-22.292969-114.515625-56.816407v-112.015625c0-17.773437 14.417968-32.191406 32.191406-32.191406h164.652344c17.773437 0 32.191406 14.417969 32.191406 32.191406zm0 0" fill="#ffd993"/><path d="m277.589844 137.3125h-164.652344c-8.09375 0-15.484375 2.996094-21.140625 7.929688v-.003907c-2.496094 2.175781-4.695313 4.769531-6.449219 7.675781-5.953125 9.898438-4.601562 15.238282-4.601562 52.222657v76.382812c26.257812 34.523438 67.78125 56.816407 114.515625 56.816407 5.351562 0 10.628906-.296876 15.824219-.867188-64.917969-7.121094-116.835938-57.425781-126.386719-121.578125-.398438-2.65625 2.730469-4.375 4.757812-2.609375 3.6875 3.222656 9.082031 7.925781 17.011719 14.863281 5.785156 5.066407 13.203125 7.851563 20.886719 7.851563h135.804687c7.683594 0 15.117188-2.785156 20.898438-7.851563 27.5625-24.113281 24.414062-21.304687 25.722656-22.628906v-36.011719c0-17.777344-14.414062-32.191406-32.191406-32.191406zm0 0" fill="#ffcd71"/><path d="m309.78125 169.503906v19.125c-1.308594 1.324219 1.839844-1.484375-25.722656 22.628906-5.785156 5.066407-13.214844 7.851563-20.898438 7.851563-3.710937 0-137.78125 0-135.804687 0-7.683594 0-15.105469-2.785156-20.886719-7.851563-27.804688-24.324218-24.457031-21.207031-25.722656-23.007812v-18.746094c0-17.773437 14.417968-32.191406 32.191406-32.191406h164.652344c17.773437 0 32.191406 14.417969 32.191406 32.191406zm0 0" fill="#ffb52d"/><g fill="#f29500"><path d="m139.058594 249.71875c-5.972656 0-10.816406-4.84375-10.816406-10.820312v-38.523438c0-5.972656 4.84375-10.816406 10.816406-10.816406 5.976562 0 10.820312 4.84375 10.820312 10.816406v38.523438c0 5.976562-4.84375 10.820312-10.820312 10.820312zm0 0"/><path d="m251.464844 249.71875c-5.972656 0-10.816406-4.84375-10.816406-10.820312v-38.523438c0-5.972656 4.84375-10.816406 10.816406-10.816406 5.976562 0 10.820312 4.84375 10.820312 10.816406v38.523438c0 5.976562-4.84375 10.820312-10.820312 10.820312zm0 0"/></g></svg>